# xmcd CD database file
#
# Track frame offsets:
#	150
#	14768
#	28965
#	43671
#	58003
#	73783
#	88172
#	103943
#	116326
#	129896
#	142980
#	157808
#	173291
#	188151
#	201154
#	214315
#	228460
#	242039
#
# Disc length: 3449 seconds
#
# Revision: 0
# Processed by: cddbd v1.5.1PL2 Copyright (c) Steve Scherf et al.
# Submitted via: CDex 1.51
#
DISCID=fd0d7712
DTITLE=Bessie Smith - Chicago Bound Blues
DYEAR=2005
DGENRE=Blues
TTITLE0=Rocking Chair Blues
TTITLE1=Hateful Blues
TTITLE2=Pinchbacks - Take Em Away
TTITLE3=Eavesdropper's Blues
TTITLE4=Haunted House Blues
TTITLE5=Whoa, Tillie, Take Your Time
TTITLE6=Cemetery Blues
TTITLE7=Graveyard Dream Blues
TTITLE8=Far Away Blues
TTITLE9=I'm Going Back To My Used To Be
TTITLE10=Mistreating Daddy
TTITLE11=Any Woman's Blues
TTITLE12=Ticket Agent, Ease Your Window Down
TTITLE13=Boweavil Blues
TTITLE14=Blue Spirit Blues
TTITLE15=Black Mountain Blues
TTITLE16=The House Blues
TTITLE17=Nashville Woman's Blues
EXTD=YEAR: 2005
EXTT0=
EXTT1=
EXTT2=
EXTT3=
EXTT4=
EXTT5=
EXTT6=
EXTT7=
EXTT8=
EXTT9=
EXTT10=
EXTT11=
EXTT12=
EXTT13=
EXTT14=
EXTT15=
EXTT16=
EXTT17=
PLAYORDER=
